<svg width="16" height="21" viewBox="0 0 16 21" fill="none" xmlns="http://www.w3.org/2000/svg">
<path d="M8.1928 20.246C6.78968 19.0491 5.48912 17.7371 4.30471 16.3234C2.5273 14.2006 0.416627 11.039 0.416627 8.02627C0.415052 4.87975 2.30984 2.04238 5.21682 0.838194C8.1238 -0.365995 11.47 0.300352 13.6939 2.52629C15.1563 3.98222 15.9755 5.96268 15.969 8.02627C15.969 11.039 13.8583 14.2006 12.0809 16.3234C10.8965 17.7371 9.59592 19.0491 8.1928 20.246ZM8.1928 4.69362C7.00216 4.69362 5.90197 5.32882 5.30665 6.35995C4.71133 7.39107 4.71133 8.66147 5.30665 9.69259C5.90197 10.7237 7.00216 11.3589 8.1928 11.3589C10.0334 11.3589 11.5254 9.86684 11.5254 8.02627C11.5254 6.1857 10.0334 4.69362 8.1928 4.69362Z" fill="#083852"/>
</svg>
