<svg width="22" height="18" viewBox="0 0 22 18" fill="none" xmlns="http://www.w3.org/2000/svg">
<path d="M19.35 17.2H2.15C1.57978 17.2 1.03292 16.9735 0.62972 16.5703C0.226517 16.1671 0 15.6202 0 15.05V2.05648C0.0241151 1.50263 0.261235 0.979496 0.661854 0.596303C1.06247 0.213111 1.59562 -0.000523782 2.15 9.64404e-07H19.35C19.9202 9.64404e-07 20.4671 0.226518 20.8703 0.629721C21.2735 1.03292 21.5 1.57979 21.5 2.15V15.05C21.5 15.6202 21.2735 16.1671 20.8703 16.5703C20.4671 16.9735 19.9202 17.2 19.35 17.2ZM2.15 4.1581V15.05H19.35V4.1581L10.75 9.89L2.15 4.1581ZM3.01 2.15L10.75 7.31L18.49 2.15H3.01Z" fill="#062D42"/>
</svg>
